<?xml version="1.0" encoding="iso-8859-1"?>
<svg version="1.1" xmlns="http://www.w3.org/2000/svg" x="0px" y="0px"
     viewBox="0 0 512 512" style="enable-background:new 0 0 512 512;" width="160" height="160">
<rect y="241.633" style="fill:#3FA9F5;" width="512" height="256"/>
    <polygon style="fill:#CCCCCC;"
             points="343.876,174.655 475.429,314.775 402.286,314.775 272.927,177.789 313.469,142.367 "/>
    <g>
	<polygon style="fill:#F2F2F2;" points="272.927,177.789 402.286,314.775 36.571,314.775 224.653,126.694 	"/>
        <path style="fill:#F2F2F2;" d="M161.959,53.551c11.494,0,20.898,9.404,20.898,20.898s-9.404,20.898-20.898,20.898H99.265
		c-11.494,0-20.898-9.404-20.898-20.898c0-3.866,1.149-7.314,2.926-10.449H57.469c-11.494,0-20.898-9.404-20.898-20.898
		s9.404-20.898,20.898-20.898h62.694c11.494,0,20.898,9.404,20.898,20.898c0,3.866-1.149,7.314-2.926,10.449H161.959z"/>
        <path style="fill:#F2F2F2;" d="M454.531,84.898c11.494,0,20.898,9.404,20.898,20.898s-9.404,20.898-20.898,20.898h-62.694
		c-11.494,0-20.898-9.404-20.898-20.898c0-3.866,1.149-7.314,2.926-10.449h-23.824c-11.494,0-20.898-9.404-20.898-20.898
		s9.404-20.898,20.898-20.898h62.694c11.494,0,20.898,9.404,20.898,20.898c0,3.866-1.149,7.314-2.926,10.449H454.531z"/>
</g>
    <path d="M512,249.469v-15.673H410.15l-60.569-64.513l-35.583-37.785l-40.56,35.439l-48.626-51.486L106.467,233.796H0v15.673h90.794
	l-57.469,57.469H10.449v15.673h491.102v-15.673H478.82l-53.955-57.469H512z M224.493,137.937l17.234,18.241L140.61,262.35
	l11.35,10.811l100.546-105.573l14.723,15.584l116.877,123.768H55.491L224.493,137.937z M457.322,306.939h-51.658L284.209,178.34
	l28.732-25.104l20.016,21.254l-14.579,14.579l11.082,11.083l14.239-14.239L457.322,306.939z"/>
    <path d="M57.469,71.837h13.189c-0.086,0.868-0.127,1.74-0.127,2.612c0,15.844,12.89,28.735,28.735,28.735h62.694
	c15.845,0,28.735-12.891,28.735-28.735s-12.89-28.735-28.735-28.735H148.77c0.086-0.868,0.127-1.74,0.127-2.612
	c0-15.844-12.89-28.735-28.735-28.735H57.469c-15.845,0-28.735,12.891-28.735,28.735S41.625,71.837,57.469,71.837z M57.469,30.041
	h62.694c7.202,0,13.061,5.859,13.061,13.061c0,2.166-0.624,4.321-1.907,6.586l-6.629,11.7h37.27c7.202,0,13.061,5.859,13.061,13.061
	c0,7.202-5.859,13.061-13.061,13.061H99.265c-7.202,0-13.061-5.859-13.061-13.061c0-2.166,0.624-4.321,1.907-6.586l6.629-11.7
	h-37.27c-7.202,0-13.061-5.859-13.061-13.061S50.267,30.041,57.469,30.041z"/>
    <path d="M350.041,103.184h13.189c-0.086,0.868-0.128,1.74-0.128,2.612c0,15.844,12.89,28.735,28.735,28.735h62.694
	c15.845,0,28.735-12.891,28.735-28.735s-12.89-28.735-28.735-28.735h-13.189c0.086-0.868,0.127-1.74,0.127-2.612
	c0-15.844-12.89-28.735-28.735-28.735h-62.694c-15.845,0-28.735,12.891-28.735,28.735S334.196,103.184,350.041,103.184z
	 M350.041,61.388h62.694c7.202,0,13.061,5.859,13.061,13.061c0,2.166-0.624,4.321-1.907,6.586l-6.629,11.7h37.27
	c7.203,0,13.061,5.859,13.061,13.061s-5.859,13.061-13.061,13.061h-62.694c-7.203,0-13.061-5.859-13.061-13.061
	c0-2.166,0.624-4.321,1.907-6.586l6.629-11.7h-37.27c-7.202,0-13.061-5.859-13.061-13.061
	C336.98,67.246,342.838,61.388,350.041,61.388z"/>
    <rect x="31.347" y="353.959" width="47.02" height="15.673"/>
    <rect x="94.041" y="353.959" width="20.898" height="15.673"/>
    <rect x="219.429" y="448" width="47.02" height="15.673"/>
    <rect x="282.122" y="448" width="20.898" height="15.673"/>
    <rect x="386.612" y="353.959" width="47.02" height="15.673"/>
    <rect x="449.306" y="353.959" width="20.898" height="15.673"/>
    <rect x="245.551" y="353.959" width="47.02" height="15.673"/>
    <rect x="208.98" y="353.959" width="20.898" height="15.673"/>
    <rect x="120.163" y="427.102" width="47.02" height="15.673"/>
    <rect x="83.592" y="427.102" width="20.898" height="15.673"/>
    <rect x="391.837" y="427.102" width="47.02" height="15.673"/>
    <rect x="355.265" y="427.102" width="20.898" height="15.673"/>
    <g>
</g>
</svg>
